<?xml version="1.0" encoding="UTF-8" standalone="no"?>
<!-- Created with Inkscape (http://www.inkscape.org/) -->

<svg
   width="635px"
   height="195px"
   viewBox="0 0 635 195"
   version="1.1"
   id="SVGRoot"
   sodipodi:docname="logo.svg"
   xml:space="preserve"
   inkscape:version="1.2.1 (9c6d41e410, 2022-07-14)"
   xmlns:inkscape="http://www.inkscape.org/namespaces/inkscape"
   xmlns:sodipodi="http://sodipodi.sourceforge.net/DTD/sodipodi-0.dtd"
   xmlns="http://www.w3.org/2000/svg"
   xmlns:svg="http://www.w3.org/2000/svg"><sodipodi:namedview
     id="namedview601"
     pagecolor="#505050"
     bordercolor="#eeeeee"
     borderopacity="1"
     inkscape:showpageshadow="0"
     inkscape:pageopacity="0"
     inkscape:pagecheckerboard="0"
     inkscape:deskcolor="#505050"
     inkscape:document-units="px"
     showgrid="false"
     inkscape:zoom="1.4912879"
     inkscape:cx="319.52247"
     inkscape:cy="189.76886"
     inkscape:window-width="1920"
     inkscape:window-height="1017"
     inkscape:window-x="-8"
     inkscape:window-y="-8"
     inkscape:window-maximized="1"
     inkscape:current-layer="layer1" /><defs
     id="defs596"><rect
       x="181.45161"
       y="261.72342"
       width="9.3339307"
       height="12.694146"
       id="rect1800" /><rect
       x="179.95818"
       y="262.84349"
       width="4.4802867"
       height="16.427718"
       id="rect1794" /></defs><g
     inkscape:label="Vrstva 1"
     inkscape:groupmode="layer"
     id="layer1"><g
       inkscape:label="Image"
       id="g8"
       style="display:inline"
       transform="translate(-2.6135006,-213.30639)"><g
         aria-label="Klub"
         transform="translate(-20.412922,144.056)"
         id="text1740-1"
         style="font-size:109.333px;line-height:0.1;font-family:Impact;-inkscape-font-specification:Impact;text-align:center;text-anchor:middle;white-space:pre;inline-size:364.702;display:inline;stroke-width:0"><path
           d="m 296.38978,176.41275 -12.86585,39.02462 14.09371,47.40611 h -23.22258 l -9.0755,-37.04937 v 37.04937 h -22.47519 v -86.43073 h 22.47519 v 33.57932 l 9.98304,-33.57932 z"
           id="path196" /><path
           d="m 323.08241,176.41275 v 86.43073 h -22.20827 v -86.43073 z"
           id="path198" /><path
           d="m 380.20463,192.00124 v 70.84224 h -21.94134 l 0.3737,-5.87238 q -2.24218,3.57681 -5.55207,5.39191 -3.2565,1.76171 -7.52732,1.76171 -4.85806,0 -8.06117,-1.70833 -3.20312,-1.70832 -4.75129,-4.53774 -1.49479,-2.82942 -1.86849,-5.87238 -0.37369,-3.09635 -0.37369,-12.22522 v -47.77981 h 21.56764 v 48.20689 q 0,8.27471 0.48047,9.82288 0.53385,1.54818 2.77603,1.54818 2.40234,0 2.82942,-1.60156 0.48047,-1.60156 0.48047,-10.30335 v -47.67304 z"
           id="path200" /><path
           d="m 409.51314,176.41275 v 20.44655 q 2.66926,-3.09634 5.92576,-4.59113 3.30988,-1.54817 7.15362,-1.54817 4.43098,0 7.68748,1.38801 3.2565,1.38802 4.96483,3.89713 1.70833,2.5091 2.02864,4.91144 0.37369,2.40234 0.37369,10.24997 v 31.92438 q 0,7.79425 -1.0677,11.63799 -1.01432,3.79035 -4.85806,6.61977 -3.84374,2.77603 -9.12888,2.77603 -3.79035,0 -7.10024,-1.65494 -3.2565,-1.65494 -5.97914,-4.96483 l -1.38802,5.33853 h -20.17963 v -86.43073 z m 6.56638,35.71473 q 0,-5.49868 -0.69401,-7.15362 -0.69401,-1.70833 -2.72265,-1.70833 -1.97525,0 -2.56249,1.49479 -0.58723,1.4414 -0.58723,7.36716 v 30.53637 q 0,5.71222 0.64062,7.31378 0.69401,1.60156 2.66926,1.60156 2.02864,0 2.61588,-1.65495 0.64062,-1.65494 0.64062,-7.9544 z"
           id="path202" /></g><path
         style="display:inline;fill:#000000;fill-opacity:1"
         d="m 543.7948,225.50777 27.25508,3.36021 -19.97461,173.23776 -28.00179,-2.61351 z"
         id="path271" /><path
         style="display:inline;fill:#000000;fill-opacity:1"
         d="m 574.4101,258.17652 20.38962,1.73486 -13.99218,130.28569 -20.59227,-2.24403 z"
         id="path273" /><path
         style="display:inline;fill:#000000;fill-opacity:1"
         d="m 601.66381,283.14368 13.86018,1.18801 -9.63612,86.46112 -13.72818,-1.32001 z"
         id="path275" /><path
         style="display:inline;fill:#000000;fill-opacity:1"
         d="m 25.344329,284.46369 14.124184,-1.18801 9.768126,86.72512 -14.388186,1.71603 z"
         id="path279" /><path
         style="display:inline;fill:#000000;fill-opacity:1"
         d="m 45.936597,260.04338 20.724269,-1.98003 14.784192,129.75769 -21.51628,2.50803 z"
         id="path281" /><path
         style="display:inline;fill:#000000;fill-opacity:1"
         d="m 70.88492,229.68298 27.192354,-3.43204 19.800256,173.31825 -27.456356,2.24403 z"
         id="path283" /><g
         aria-label="Fitness"
         transform="translate(-17.994438,36.893643)"
         id="text1740"
         style="font-size:109.333px;line-height:0.1;font-family:Impact;-inkscape-font-specification:Impact;text-align:center;text-anchor:middle;white-space:pre;inline-size:364.702;display:inline;stroke-width:0"><path
           d="m 182.73257,176.41275 h 38.06369 v 17.29682 h -15.58849 v 16.38927 h 13.88016 v 16.44266 h -13.88016 v 36.30198 h -22.4752 z"
           style="font-stretch:condensed;-inkscape-font-specification:'Impact Condensed'"
           id="path205" /><path
           d="m 247.8092,176.41275 v 11.26429 h -22.20826 v -11.26429 z m 0,15.58849 v 70.84224 h -22.20826 v -70.84224 z"
           style="font-stretch:condensed;-inkscape-font-specification:'Impact Condensed'"
           id="path207" /><path
           d="m 278.29218,182.55205 v 11.15752 h 5.819 v 11.2109 h -5.819 v 37.90354 q 0,6.99346 0.69401,7.79424 0.7474,0.80078 6.03254,0.80078 v 11.42445 h -8.7018 q -7.36717,0 -10.5169,-0.58724 -3.14973,-0.64063 -5.55206,-2.82942 -2.40234,-2.24218 -2.98958,-5.0716 -0.58723,-2.8828 -0.58723,-13.45308 v -35.98167 h -4.64452 v -11.2109 h 4.64452 v -11.15752 z"
           style="font-stretch:condensed;-inkscape-font-specification:'Impact Condensed'"
           id="path209" /><path
           d="m 310.8038,192.00124 -0.3737,6.513 q 2.34895,-3.89712 5.71222,-5.81899 3.41666,-1.97525 7.84764,-1.97525 5.55206,0 9.07549,2.61587 3.52343,2.61588 4.53775,6.61978 1.01432,3.9505 1.01432,13.23954 v 49.64829 h -21.56765 v -49.06105 q 0,-7.31378 -0.48046,-8.91534 -0.48047,-1.60156 -2.66927,-1.60156 -2.29556,0 -2.8828,1.86849 -0.58724,1.81509 -0.58724,9.82288 v 47.88658 h -21.56764 v -70.84224 z"
           style="font-stretch:condensed;-inkscape-font-specification:'Impact Condensed'"
           id="path211" /><path
           d="m 394.88556,228.67691 h -27.92048 v 15.32157 q 0,4.80467 0.69401,6.19269 0.694,1.38802 2.66926,1.38802 2.45572,0 3.2565,-1.8151 0.85416,-1.86849 0.85416,-7.15363 v -9.34242 h 20.44655 v 5.23176 q 0,6.56639 -0.85416,10.08981 -0.80078,3.52343 -3.84374,7.52732 -3.04296,4.0039 -7.74086,6.03254 -4.64452,1.97525 -11.69137,1.97525 -6.83331,0 -12.06507,-1.97525 -5.23175,-1.97526 -8.16794,-5.39191 -2.88281,-3.47005 -4.0039,-7.58071 -1.12109,-4.16405 -1.12109,-12.06507 v -20.66009 q 0,-9.28903 2.50911,-14.62756 2.50911,-5.39191 8.22133,-8.22133 5.71222,-2.8828 13.13277,-2.8828 9.0755,0 14.94787,3.47004 5.92577,3.41665 8.27472,9.12888 2.40233,5.65883 2.40233,15.96219 z M 373.26454,217.1457 v -5.17837 q 0,-5.49868 -0.58724,-7.10024 -0.58724,-1.60156 -2.40234,-1.60156 -2.24218,0 -2.77603,1.38802 -0.53385,1.33463 -0.53385,7.31378 v 5.17837 z"
           style="font-stretch:condensed;-inkscape-font-specification:'Impact Condensed'"
           id="path213" /><path
           d="m 445.97526,214.63659 h -19.11193 v -3.84374 q 0,-4.91144 -0.58723,-6.19269 -0.53386,-1.33463 -2.77604,-1.33463 -1.8151,0 -2.72264,1.22786 -0.90755,1.17448 -0.90755,3.57681 0,3.25651 0.42708,4.80468 0.48047,1.49478 2.72265,3.30988 2.29556,1.8151 9.34242,5.28514 9.3958,4.59114 12.33199,8.64841 2.93619,4.05728 2.93619,11.79815 0,8.64841 -2.24218,13.07938 -2.24218,4.37759 -7.52732,6.77993 -5.23176,2.34895 -12.65231,2.34895 -8.22133,0 -14.09371,-2.56249 -5.81899,-2.56249 -8.00778,-6.94008 -2.1888,-4.37759 -2.1888,-13.23955 v -3.41665 h 19.11192 v 4.48436 q 0,5.71222 0.69401,7.42055 0.74739,1.70833 2.8828,1.70833 2.29557,0 3.20312,-1.12109 0.90755,-1.17448 0.90755,-4.85806 0,-5.0716 -1.17448,-6.35285 -1.22786,-1.28124 -12.54553,-7.5807 -9.50258,-5.33853 -11.5846,-9.66273 -2.08203,-4.37759 -2.08203,-10.35674 0,-8.48826 2.24218,-12.49215 2.24218,-4.05728 7.58071,-6.24608 5.39191,-2.18879 12.49215,-2.18879 7.04685,0 11.9583,1.8151 4.96482,1.76171 7.5807,4.6979 2.66926,2.93619 3.20312,5.44529 0.58724,2.50911 0.58724,7.84764 z"
           style="font-stretch:condensed;-inkscape-font-specification:'Impact Condensed'"
           id="path215" /><path
           d="m 497.43865,214.63659 h -19.11192 v -3.84374 q 0,-4.91144 -0.58724,-6.19269 -0.53385,-1.33463 -2.77603,-1.33463 -1.8151,0 -2.72265,1.22786 -0.90755,1.17448 -0.90755,3.57681 0,3.25651 0.42708,4.80468 0.48047,1.49478 2.72265,3.30988 2.29557,1.8151 9.34242,5.28514 9.3958,4.59114 12.33199,8.64841 2.93619,4.05728 2.93619,11.79815 0,8.64841 -2.24218,13.07938 -2.24218,4.37759 -7.52732,6.77993 -5.23175,2.34895 -12.6523,2.34895 -8.22133,0 -14.09371,-2.56249 -5.81899,-2.56249 -8.00779,-6.94008 -2.18879,-4.37759 -2.18879,-13.23955 v -3.41665 h 19.11192 v 4.48436 q 0,5.71222 0.694,7.42055 0.7474,1.70833 2.88281,1.70833 2.29556,0 3.20311,-1.12109 0.90755,-1.17448 0.90755,-4.85806 0,-5.0716 -1.17447,-6.35285 -1.22786,-1.28124 -12.54554,-7.5807 -9.50257,-5.33853 -11.5846,-9.66273 -2.08202,-4.37759 -2.08202,-10.35674 0,-8.48826 2.24218,-12.49215 2.24218,-4.05728 7.5807,-6.24608 5.39191,-2.18879 12.49215,-2.18879 7.04686,0 11.9583,1.8151 4.96483,1.76171 7.58071,4.6979 2.66926,2.93619 3.20311,5.44529 0.58724,2.50911 0.58724,7.84764 z"
           style="font-stretch:condensed;-inkscape-font-specification:'Impact Condensed'"
           id="path217" /></g><path
         style="fill:#f06449;fill-opacity:1;stroke-width:0;stroke-dasharray:none"
         d="m 165.39725,256.49642 v -42.56273 h 18.66786 18.66786 v 8.21386 8.21386 h -7.8405 -7.8405 v 8.58722 8.58721 h 6.72043 6.72043 v 7.8405 7.84051 h -6.72043 -6.72043 v 17.92114 17.92115 h -10.82736 -10.82736 z"
         id="path3826" /><path
         style="fill:#f06449;fill-opacity:1;stroke-width:0;stroke-dasharray:none"
         d="m 222.89427,363.64994 v -42.93608 h 10.82735 10.82736 l 0.0227,16.98775 c 0.0128,9.58485 0.29632,16.49965 0.65057,15.86769 0.34533,-0.61604 2.73221,-8.26053 5.30418,-16.98776 l 4.6763,-15.86768 h 9.98077 c 5.48942,0 9.98077,0.25943 9.98077,0.5765 0,0.31708 -2.81696,9.01275 -6.2599,19.32372 l -6.2599,18.74721 6.99553,23.42569 c 3.84754,12.88412 7.00052,23.50969 7.00661,23.61236 0.006,0.10268 -5.00659,0.18668 -11.13931,0.18668 -9.97683,0 -11.1904,-0.13754 -11.53047,-1.30675 -0.20904,-0.71871 -2.12124,-8.53121 -4.24934,-17.36111 -2.1281,-8.8299 -4.15364,-16.55839 -4.50119,-17.17443 -0.35833,-0.63515 -0.64174,6.88115 -0.65462,17.36111 l -0.0227,18.48118 h -10.82736 -10.82735 z"
         id="path3828" /><path
         style="fill:#000000;fill-opacity:1;stroke-width:0;stroke-dasharray:none"
         d="m 2.6135006,327.62097 0.3733573,0.95672 0.3733572,0.95673 0.3733572,0.95673 0.3733572,0.95673 0.3733572,0.95672 0.3733573,0.95673 0.3733572,0.95673 0.3733572,0.95673 81.8202496,-12.33486 75.748172,-8.3748 79.90622,-2.51432 79.90622,-0.46087 77.66219,0.0992 77.6622,2.15263 81.82025,8.01311 75.74817,11.97317 0.14001,-0.76422 0.14001,-0.76421 0.14,-0.76422 0.14001,-0.76421 0.14001,-0.76422 0.14001,-0.76421 0.14001,-0.76422 0.14001,-0.76421 -76.26153,-12.16566 -82.33362,-8.20561 -78.17556,-2.34513 -77.05549,-0.10499 -81.53966,0.0817 -80.41959,2.32183 -76.261536,8.18224 z"
         id="path5946"
         sodipodi:nodetypes="ccccccccccccccccccccccccccccccccc" /></g></g></svg>
