<?xml version="1.0" encoding="UTF-8" standalone="no"?>
<!-- Created with Inkscape (http://www.inkscape.org/) -->

<svg
   width="635px"
   height="195px"
   viewBox="0 0 635 195"
   version="1.1"
   id="SVGRoot"
   sodipodi:docname="logo.svg"
   xml:space="preserve"
   inkscape:version="1.2.1 (9c6d41e410, 2022-07-14)"
   xmlns:inkscape="http://www.inkscape.org/namespaces/inkscape"
   xmlns:sodipodi="http://sodipodi.sourceforge.net/DTD/sodipodi-0.dtd"
   xmlns="http://www.w3.org/2000/svg"
   xmlns:svg="http://www.w3.org/2000/svg"><sodipodi:namedview
     id="namedview601"
     pagecolor="#505050"
     bordercolor="#eeeeee"
     borderopacity="1"
     inkscape:showpageshadow="0"
     inkscape:pageopacity="0"
     inkscape:pagecheckerboard="0"
     inkscape:deskcolor="#505050"
     inkscape:document-units="px"
     showgrid="false"
     inkscape:zoom="1.4912879"
     inkscape:cx="334.27482"
     inkscape:cy="189.09829"
     inkscape:window-width="1920"
     inkscape:window-height="1017"
     inkscape:window-x="-8"
     inkscape:window-y="-8"
     inkscape:window-maximized="1"
     inkscape:current-layer="layer1" /><defs
     id="defs596"><rect
       x="181.45161"
       y="261.72342"
       width="9.3339307"
       height="12.694146"
       id="rect1800" /><rect
       x="179.95818"
       y="262.84349"
       width="4.4802867"
       height="16.427718"
       id="rect1794" /></defs><g
     inkscape:label="Vrstva 1"
     inkscape:groupmode="layer"
     id="layer1"><g
       inkscape:label="Image"
       id="g8"
       style="display:inline"
       transform="translate(-2.6135006,-213.30639)"><text
         xml:space="preserve"
         style="font-style:normal;font-variant:normal;font-weight:normal;font-stretch:normal;font-size:109.333px;line-height:0.1;font-family:Impact;-inkscape-font-specification:Impact;text-align:center;text-anchor:middle;white-space:pre;inline-size:364.702;display:inline;fill:#000000;fill-opacity:1;stroke-width:0;stroke-dasharray:none"
         x="339.63211"
         y="262.84348"
         id="text1740-1"
         transform="translate(-20.412922,144.056)"><tspan
           x="339.63211"
           y="262.84348"
           id="tspan1679">Klub</tspan></text><path
         style="display:inline;fill:#000000;fill-opacity:1"
         d="m 543.7948,225.50777 27.25508,3.36021 -19.97461,173.23776 -28.00179,-2.61351 z"
         id="path271" /><path
         style="display:inline;fill:#000000;fill-opacity:1"
         d="m 574.4101,258.17652 20.38962,1.73486 -13.99218,130.28569 -20.59227,-2.24403 z"
         id="path273" /><path
         style="display:inline;fill:#000000;fill-opacity:1"
         d="m 601.66381,283.14368 13.86018,1.18801 -9.63612,86.46112 -13.72818,-1.32001 z"
         id="path275" /><path
         style="display:inline;fill:#000000;fill-opacity:1"
         d="m 25.344329,284.46369 14.124184,-1.18801 9.768126,86.72512 -14.388186,1.71603 z"
         id="path279" /><path
         style="display:inline;fill:#000000;fill-opacity:1"
         d="m 45.936597,260.04338 20.724269,-1.98003 14.784192,129.75769 -21.51628,2.50803 z"
         id="path281" /><path
         style="display:inline;fill:#000000;fill-opacity:1"
         d="m 70.88492,229.68298 27.192354,-3.43204 19.800256,173.31825 -27.456356,2.24403 z"
         id="path283" /><text
         xml:space="preserve"
         style="font-style:normal;font-variant:normal;font-weight:normal;font-stretch:normal;font-size:109.333px;line-height:0.1;font-family:Impact;-inkscape-font-specification:Impact;text-align:center;text-anchor:middle;white-space:pre;inline-size:364.702;display:inline;fill:#000000;fill-opacity:1;stroke-width:0;stroke-dasharray:none"
         x="339.63211"
         y="262.84348"
         id="text1740"
         transform="translate(-17.994438,36.893643)"><tspan
           x="339.63211"
           y="262.84348"
           id="tspan1683"><tspan
             style="font-stretch:condensed;-inkscape-font-specification:'Impact Condensed'"
             id="tspan1681">Fitness</tspan></tspan></text><path
         style="fill:#f06449;fill-opacity:1;stroke-width:0;stroke-dasharray:none"
         d="m 165.39725,256.49642 v -42.56273 h 18.66786 18.66786 v 8.21386 8.21386 h -7.8405 -7.8405 v 8.58722 8.58721 h 6.72043 6.72043 v 7.8405 7.84051 h -6.72043 -6.72043 v 17.92114 17.92115 h -10.82736 -10.82736 z"
         id="path3826" /><path
         style="fill:#f06449;fill-opacity:1;stroke-width:0;stroke-dasharray:none"
         d="m 222.89427,363.64994 v -42.93608 h 10.82735 10.82736 l 0.0227,16.98775 c 0.0128,9.58485 0.29632,16.49965 0.65057,15.86769 0.34533,-0.61604 2.73221,-8.26053 5.30418,-16.98776 l 4.6763,-15.86768 h 9.98077 c 5.48942,0 9.98077,0.25943 9.98077,0.5765 0,0.31708 -2.81696,9.01275 -6.2599,19.32372 l -6.2599,18.74721 6.99553,23.42569 c 3.84754,12.88412 7.00052,23.50969 7.00661,23.61236 0.006,0.10268 -5.00659,0.18668 -11.13931,0.18668 -9.97683,0 -11.1904,-0.13754 -11.53047,-1.30675 -0.20904,-0.71871 -2.12124,-8.53121 -4.24934,-17.36111 -2.1281,-8.8299 -4.15364,-16.55839 -4.50119,-17.17443 -0.35833,-0.63515 -0.64174,6.88115 -0.65462,17.36111 l -0.0227,18.48118 h -10.82736 -10.82735 z"
         id="path3828" /><path
         style="fill:#000000;fill-opacity:1;stroke-width:0;stroke-dasharray:none"
         d="m 2.6135006,327.62097 0.3733573,0.95672 0.3733572,0.95673 0.3733572,0.95673 0.3733572,0.95673 0.3733572,0.95672 0.3733573,0.95673 0.3733572,0.95673 0.3733572,0.95673 81.8202496,-12.33486 75.748172,-8.3748 79.90622,-2.51432 79.90622,-0.46087 77.66219,0.0992 77.6622,2.15263 81.82025,8.01311 75.74817,11.97317 0.14001,-0.76422 0.14001,-0.76421 0.14,-0.76422 0.14001,-0.76421 0.14001,-0.76422 0.14001,-0.76421 0.14001,-0.76422 0.14001,-0.76421 -76.26153,-12.16566 -82.33362,-8.20561 -78.17556,-2.34513 -77.05549,-0.10499 -81.53966,0.0817 -80.41959,2.32183 -76.261536,8.18224 z"
         id="path5946"
         sodipodi:nodetypes="ccccccccccccccccccccccccccccccccc" /></g></g></svg>
